# xmcd
#
# Track frame offsets:
#	150
#	19810
#	37615
#	56157
#	72812
#	98437
#	114065
#	131487
#	152262
#	170127
#
# Disc length: 2526 seconds
#
# Revision: 1
# Processed by: cddbd v1.5.2PL0 Copyright (c) Steve Scherf et al.
# Submitted via: EZCDAudioConverter 8.0.2.1
#
DISCID=6d09dc0a
DTITLE=Various Artist - All That I Am
DYEAR=2000
DGENRE=Mainstream Rock
TTITLE0=Tứ Ca Asia 4  - Will You Still 
TTITLE1=Shayla - Fame
TTITLE2=Philip Huy - All That I Am
TTITLE3=Thanh Trúc - Người yêu ơi, Tình yêu ơi
TTITLE4=Jacqueline Thụy Trâm - Nhớ qua thăm em
TTITLE5=Thanh Trúc, Shayla, Trish, Jacqueline Thụy Trâm - Never On Sunday
TTITLE6=Thanh Trúc - Giấc mơ tuyệt vời
TTITLE7=Shayla - Welcome To Little Saigon
TTITLE8=Thanh Trúc - Anh không lại
TTITLE9=Trish Thùy Trang, Lê Tâm - What A Wonderful World 
EXTD=
EXTT0=
EXTT1=
EXTT2=
EXTT3=
EXTT4=
EXTT5=
EXTT6=
EXTT7=
EXTT8=
EXTT9=
PLAYORDER=
